<svg xmlns="http://www.w3.org/2000/svg" xmlns:xlink="http://www.w3.org/1999/xlink" viewBox="0 0 158.99 192.67"><defs><style>.cls-1,.cls-6,.cls-7{fill:none;}.cls-2{fill:#965450;}.cls-3{fill:#76413b;}.cls-4{fill:#ffa65b;}.cls-5{clip-path:url(#clip-path);}.cls-6,.cls-7{stroke:#765e69;stroke-miterlimit:10;}.cls-6{stroke-width:1.41px;}.cls-8{fill:#352c38;}.cls-9{fill:#fff;}</style><clipPath id="clip-path" transform="translate(4.98)"><path class="cls-1" d="M144.5,146.93c-5.79-15.56-40.23-23.26-48.3-28a46.26,46.26,0,0,1-42.51,1.38c-11.32,4.81-40.2,12.46-45.45,26.59A176.37,176.37,0,0,0,0,177.26H152.74A176.37,176.37,0,0,0,144.5,146.93Z"/></clipPath></defs><g id="Layer_2" data-name="Layer 2"><g id="OBJECTS"><path class="cls-2" d="M143.45,147.16c-5.95-16-42.32-23.62-48.69-28.25-8.17-5.94-5.57-25.64-5.57-25.64l-13.38.35-13.38-.35S65,113,56.86,118.91c-6.37,4.63-42.74,12.27-48.68,28.25A174.64,174.64,0,0,0,0,177.26H151.62A175.11,175.11,0,0,0,143.45,147.16Z" transform="translate(4.98)"/><path class="cls-3" d="M60,115.24c6.27-.64,12.56-1.91,18-5a61.56,61.56,0,0,0,10.87-7.8,60.14,60.14,0,0,1,.35-9.21l-13.38.35-13.38-.35S64.28,107.29,60,115.24Z" transform="translate(4.98)"/><path class="cls-4" d="M144.5,146.93c-5.79-15.56-40.23-23.26-48.3-28a46.26,46.26,0,0,1-42.51,1.38c-11.32,4.81-40.2,12.46-45.45,26.59A176.37,176.37,0,0,0,0,177.26H152.74A176.37,176.37,0,0,0,144.5,146.93Z" transform="translate(4.98)"/><g class="cls-5"><line class="cls-6" x1="135.11" y1="120.17" x2="135.11" y2="192.67"/><line class="cls-6" x1="125.71" y1="120.17" x2="125.71" y2="192.67"/><line class="cls-6" x1="116.32" y1="120.17" x2="116.32" y2="192.67"/><line class="cls-6" x1="106.93" y1="120.17" x2="106.93" y2="192.67"/><line class="cls-6" x1="97.54" y1="120.17" x2="97.54" y2="192.67"/><line class="cls-6" x1="88.14" y1="120.17" x2="88.14" y2="192.67"/><line class="cls-6" x1="78.75" y1="120.17" x2="78.75" y2="192.67"/><line class="cls-6" x1="69.36" y1="120.17" x2="69.36" y2="192.67"/><line class="cls-6" x1="59.96" y1="120.17" x2="59.96" y2="192.67"/><line class="cls-6" x1="50.57" y1="120.17" x2="50.57" y2="192.67"/><line class="cls-6" x1="41.18" y1="120.17" x2="41.18" y2="192.67"/><line class="cls-6" x1="31.79" y1="120.17" x2="31.79" y2="192.67"/><line class="cls-6" x1="22.39" y1="120.17" x2="22.39" y2="192.67"/><line class="cls-6" x1="13" y1="120.17" x2="13" y2="192.67"/><line class="cls-6" x1="144.5" y1="120.17" x2="144.5" y2="192.67"/><line class="cls-7" y1="141.57" x2="158.99" y2="141.57"/><line class="cls-7" y1="150.96" x2="158.99" y2="150.96"/><line class="cls-7" y1="160.35" x2="158.99" y2="160.35"/><line class="cls-7" y1="169.75" x2="158.99" y2="169.75"/><line class="cls-7" y1="132.18" x2="158.99" y2="132.18"/></g><path class="cls-3" d="M53.35,62.56c-2.16-6.7-7.28-5.15-7.76-5s-5.79.85-4.88,7.83,5,10.83,8.82,9.72C53.46,74.49,55.52,69.31,53.35,62.56Z" transform="translate(4.98)"/><path class="cls-3" d="M97.61,62.56c2.16-6.7,7.27-5.15,7.75-5s5.79.85,4.88,7.83-5,10.83-8.82,9.72C97.49,74.49,95.43,69.31,97.61,62.56Z" transform="translate(4.98)"/><path class="cls-2" d="M102.07,52c-2.68-29.39-25-27.74-27.13-27.52C72.83,24.28,50.49,22.63,47.81,52c-2.69,29.56,10.48,48.87,27.13,47.81C91.59,100.89,104.76,81.58,102.07,52Z" transform="translate(4.98)"/><path class="cls-3" d="M76.42,76.89c.08-.2.19-.37.28-.55s.21-.34.32-.51a10.92,10.92,0,0,1,.73-.92,10.58,10.58,0,0,1,.83-.81,8.08,8.08,0,0,1,.91-.73l-.13.39q-.36-2.92-.67-5.85c-.19-2-.41-3.9-.56-5.86.41,1.92.74,3.86,1.11,5.78s.68,3.87,1,5.8l0,.18L80.1,74a9,9,0,0,1-.77.87,10.61,10.61,0,0,1-.86.78,7.23,7.23,0,0,1-1,.68,4.35,4.35,0,0,1-.52.29A4.91,4.91,0,0,1,76.42,76.89Z" transform="translate(4.98)"/><path class="cls-8" d="M61,62.5c0,2.21.82,4,1.84,4s1.83-1.79,1.83-4-.82-4-1.83-4S61,60.28,61,62.5Z" transform="translate(4.98)"/><path class="cls-8" d="M86.26,62.5c0,2.21.82,4,1.83,4s1.83-1.79,1.83-4-.82-4-1.83-4S86.26,60.28,86.26,62.5Z" transform="translate(4.98)"/><path class="cls-8" d="M56.54,55.94a6.74,6.74,0,0,1,1.31-2.08,7.8,7.8,0,0,1,.87-.84,6.34,6.34,0,0,1,1.12-.78,8.1,8.1,0,0,1,1.36-.64,7.31,7.31,0,0,1,1.56-.31c.27,0,.54,0,.81,0s.54.07.8.1a6,6,0,0,1,1.49.44,7.44,7.44,0,0,1,1.21.72,4.63,4.63,0,0,1,.91.84,3.43,3.43,0,0,1,.64.78c.17.26.3.49.4.68a5.2,5.2,0,0,1,.3.6l-.6-.31c-.19-.1-.41-.21-.65-.36a5.69,5.69,0,0,0-.82-.41,6.46,6.46,0,0,0-1-.42c-.35-.09-.69-.27-1.06-.33a7.19,7.19,0,0,0-1.13-.18l-.57,0-.58,0a7.86,7.86,0,0,0-1.17.17c-.37.14-.77.2-1.13.36a10.37,10.37,0,0,0-1.07.43c-.36.14-.67.32-1,.45l-.83.44-.65.35Z" transform="translate(4.98)"/><path class="cls-8" d="M81.93,55.94a6.74,6.74,0,0,1,1.31-2.08,7.8,7.8,0,0,1,.87-.84,6.34,6.34,0,0,1,1.12-.78,8.1,8.1,0,0,1,1.36-.64,7.44,7.44,0,0,1,1.56-.31c.27,0,.54,0,.81,0s.54.07.8.1a6,6,0,0,1,1.49.44,8,8,0,0,1,1.22.72,4.86,4.86,0,0,1,.9.84,3.43,3.43,0,0,1,.64.78c.17.26.3.49.4.68a5.2,5.2,0,0,1,.3.6l-.6-.31c-.18-.1-.41-.21-.64-.36a21.27,21.27,0,0,0-1.79-.83c-.35-.09-.69-.27-1.06-.33a7.25,7.25,0,0,0-1.12-.18l-.58,0-.58,0a8.05,8.05,0,0,0-1.17.17c-.37.14-.77.2-1.13.36a11.37,11.37,0,0,0-1.07.43c-.35.14-.67.32-1,.45l-.83.44-.65.35Z" transform="translate(4.98)"/><path class="cls-9" d="M63.75,81.17l24.77-.23S77.75,90.92,63.75,81.17Z" transform="translate(4.98)"/><path class="cls-8" d="M46.25,35.17s-1.5,36.75,2.75,54c3.2,13,12.5,16.5,12.5,16.5s22,8.5,34.25-5.25c3.53-4,9-24.75,6.5-62l-9-3.75s1.5,18.25,6,20.5c0,0-1.32,32.62-7,36.5-4.75,3.25,3.25-15-6-14.75s-9.5.5-9.5.5-16.5-2.75-16.25,3.75,2,10.75-.25,10.75-10.5-5.25-9-39.5c0,0,4.75-1.75,4.75-13.75C56,22.89,46.25,35.17,46.25,35.17Z" transform="translate(4.98)"/><path class="cls-8" d="M55,33.17s7.2,9.75,15.75,9.75c4.75,0,0-8.25,0-8.25S77.5,45.17,84.5,44.92s1-10.25,1-10.25,5.25,10.75,11.75,10.25,1-11,1-11,3,11.25,9.25,9.75S106,32.42,106,32.42s5.25,5,7.5,4.75,2.25-7-5.5-10.25c0,0,7.75-.25,8-4,.29-4.24-4.75-5.75-16.25-4.5,0,0,9.5-4,7.5-7.5s-10.5,1.5-10.5,1.5,8.5-4.75,3.5-8.5c-4.1-3.07-25.5-3-38.5,12.5,0,0,27-14.25,23.75-16.25C83.21-1.24,50.91,6,46,19.67c-6,16.75-1.5,26.25.44,37.66Z" transform="translate(4.98)"/></g></g></svg>