<svg xmlns="http://www.w3.org/2000/svg" viewBox="0 0 152.74 175.42"><defs><style>.cls-1{fill:#f19c7c;}.cls-2{fill:#d88971;}.cls-3{fill:#5d8584;}.cls-4{fill:#7badaa;}.cls-5{fill:#b26e59;}.cls-6{fill:#fff;}.cls-7,.cls-9{fill:#352c38;}.cls-8{fill:#fddec0;}.cls-9{opacity:0.1;}</style></defs><g id="Layer_2" data-name="Layer 2"><g id="OBJECTS"><path class="cls-1" d="M143.45,145.31c-5.95-16-42.32-23.61-48.69-28.24-8.17-5.95-5.57-25.64-5.57-25.64l-13.38.35-13.38-.35s2.6,19.69-5.57,25.64c-6.37,4.63-42.74,12.26-48.68,28.24A174.61,174.61,0,0,0,0,175.42H151.62A175.08,175.08,0,0,0,143.45,145.31Z"/><path class="cls-2" d="M60,113.4c6.27-.64,12.56-1.91,18-5a61.56,61.56,0,0,0,10.87-7.8,60.14,60.14,0,0,1,.35-9.21l-13.38.35-13.38-.35S64.28,105.45,60,113.4Z"/><path class="cls-3" d="M144.5,145.09c-5.79-15.56-40.23-23.27-48.3-28a46.18,46.18,0,0,1-42.51,1.38c-11.32,4.82-40.2,12.47-45.45,26.6A176.37,176.37,0,0,0,0,175.42H152.74A176.37,176.37,0,0,0,144.5,145.09Z"/><path class="cls-4" d="M53.69,118.49s4.87-3.16,6-8l32.22-1.55s1.11,6.44,5.56,8.89C97.45,117.78,73.92,131.21,53.69,118.49Z"/><path class="cls-2" d="M53.35,60.72c-2.16-6.7-7.28-5.15-7.76-5s-5.79.85-4.88,7.83,5,10.83,8.82,9.72C53.46,72.65,55.52,67.47,53.35,60.72Z"/><path class="cls-2" d="M97.61,60.72c2.16-6.7,7.27-5.15,7.75-5s5.79.85,4.88,7.83-5,10.83-8.82,9.72C97.49,72.65,95.43,67.47,97.61,60.72Z"/><path class="cls-1" d="M102.07,50.18c-2.68-29.39-25-27.74-27.13-27.52-2.11-.22-24.45-1.87-27.13,27.52C45.12,79.74,58.29,99.05,74.94,98,91.59,99.05,104.76,79.74,102.07,50.18Z"/><path class="cls-5" d="M78.13,60.21c.16.47.28.95.42,1.43s.24,1,.36,1.43c.21,1,.4,1.92.57,2.89s.33,1.93.44,2.91.24,1.94.32,2.92l0,.25-.16.14c-.58.5-1.19,1-1.8,1.48s-1.22,1-1.88,1.39c.48-.63,1-1.2,1.5-1.8s1-1.16,1.57-1.72l-.13.39c-.2-1-.37-1.93-.52-2.9s-.27-1.94-.39-2.91-.2-2-.26-2.94c0-.49,0-1,0-1.47S78.11,60.71,78.13,60.21Z"/><path class="cls-6" d="M62,79.37l26.52-.27S77.92,89.53,62,79.37Z"/><path class="cls-5" d="M68.8,84.7s.29.06.77.19a16.91,16.91,0,0,0,2,.51c.42.08.87.16,1.33.26a13.66,13.66,0,0,0,1.49.15,8.46,8.46,0,0,0,1.6.07c.54,0,1.09,0,1.64,0l1.62-.26a10.52,10.52,0,0,0,1.54-.4,8.35,8.35,0,0,0,1.41-.49l1.24-.54a7.35,7.35,0,0,0,1-.54l.77-.46.7-.39s-.19.21-.56.56l-.67.62a4.57,4.57,0,0,1-.93.76c-.37.23-.77.49-1.21.75a6.39,6.39,0,0,1-1.45.65l-.79.3-.41.15-.43.08-1.74.31c-.59,0-1.19,0-1.77,0a7.91,7.91,0,0,1-1.7-.17,9.24,9.24,0,0,1-1.55-.33c-.49-.15-.94-.31-1.36-.45a5.73,5.73,0,0,1-1.08-.49l-.8-.43Z"/><path class="cls-7" d="M61,60.65c0,2.22.82,4,1.84,4s1.83-1.79,1.83-4-.82-4-1.83-4S61,58.44,61,60.65Z"/><path class="cls-7" d="M86.26,60.65c0,2.22.82,4,1.83,4s1.83-1.79,1.83-4-.82-4-1.83-4S86.26,58.44,86.26,60.65Z"/><path class="cls-7" d="M56.54,54.1A6.74,6.74,0,0,1,57.85,52a7.8,7.8,0,0,1,.87-.84,6.94,6.94,0,0,1,1.12-.79,8.94,8.94,0,0,1,1.36-.63,7.31,7.31,0,0,1,1.56-.31c.27,0,.54,0,.81,0s.54.06.8.1a6,6,0,0,1,1.49.44,7.44,7.44,0,0,1,1.21.72,4.92,4.92,0,0,1,.91.83,3.7,3.7,0,0,1,.64.79c.17.25.3.49.4.67a6.42,6.42,0,0,1,.3.6s-.23-.1-.6-.3l-.65-.36a6.93,6.93,0,0,0-.82-.42,6.45,6.45,0,0,0-1-.41,9.35,9.35,0,0,0-1.06-.34,7.17,7.17,0,0,0-1.13-.17l-.57,0-.58,0a7.86,7.86,0,0,0-1.17.17c-.37.14-.77.19-1.13.36a8.53,8.53,0,0,0-1.07.43c-.36.14-.67.32-1,.45l-.83.44-.65.35Z"/><path class="cls-7" d="M81.93,54.1A6.74,6.74,0,0,1,83.24,52a7.8,7.8,0,0,1,.87-.84,6.94,6.94,0,0,1,1.12-.79,8.94,8.94,0,0,1,1.36-.63,7.44,7.44,0,0,1,1.56-.31c.27,0,.54,0,.81,0s.54.06.8.1a6,6,0,0,1,1.49.44,8,8,0,0,1,1.22.72,5.18,5.18,0,0,1,.9.83,3.7,3.7,0,0,1,.64.79c.17.25.3.49.4.67a6.42,6.42,0,0,1,.3.6s-.23-.1-.6-.3c-.18-.1-.41-.22-.64-.36a8,8,0,0,0-.83-.42,6.45,6.45,0,0,0-1-.41,9.35,9.35,0,0,0-1.06-.34,7.22,7.22,0,0,0-1.12-.17l-.58,0-.58,0a8.05,8.05,0,0,0-1.17.17c-.37.14-.77.19-1.13.36a9.19,9.19,0,0,0-1.07.43c-.35.14-.67.32-1,.45l-.83.44-.65.35Z"/><path class="cls-8" d="M102.22,66.33c7.67-19,4.34-41.66,4.34-41.66a29.22,29.22,0,0,0-.67-17.34c0,5.67-5,12.67-5,12.67,4.33-6.67.67-20,.67-20C98.89,5,87.22,13.67,87.22,13.67l5.67-8.34c-13.33-.66-21.67,6-21.67,6l6.34-7c-18,1.67-25.34,14-25.34,14C33.89,26,47.89,67.67,47.89,67.67h2V52.33S56.56,49,56.22,32a71.42,71.42,0,0,0,36.67,0s-2.33,17.33,7.33,19l-.33,15.67Z"/><path class="cls-9" d="M72.26,34.32a59.51,59.51,0,0,1-10.42-5.68,23.42,23.42,0,0,1-8.77-11.51c-.56.74-.85,1.2-.85,1.2C33.89,26,47.89,67.67,47.89,67.67h2V52.33S56.56,49,56.22,32A64.32,64.32,0,0,0,72.26,34.32Z"/></g></g></svg>