<svg xmlns="http://www.w3.org/2000/svg" xmlns:xlink="http://www.w3.org/1999/xlink" viewBox="0 0 169.49 168.48"><defs><style>.cls-1{fill:none;}.cls-2{fill:#ffac9d;}.cls-3{fill:#cc887f;}.cls-4{fill:#ffa65b;}.cls-5{clip-path:url(#clip-path);}.cls-6,.cls-9{fill:#352c38;}.cls-7{fill:#fff;}.cls-8{fill:#765e69;}.cls-9{opacity:0.4;}</style><clipPath id="clip-path" transform="translate(2.36)"><path class="cls-1" d="M144.77,132.23c-2.18-5.85-8.4-10.59-15.76-14.47-13.12,9-31.73,14.56-52.38,14.56s-39.24-5.6-52.37-14.56c-7.35,3.89-13.58,8.62-15.76,14.47A175.74,175.74,0,0,0,.27,162.56H153A175.74,175.74,0,0,0,144.77,132.23Z"/></clipPath></defs><g id="Layer_2" data-name="Layer 2"><g id="OBJECTS"><path class="cls-2" d="M143.45,132.45c-5.95-16-42.32-23.61-48.69-28.24-8.17-5.94-5.57-25.64-5.57-25.64l-13.38.35-13.38-.35s2.6,19.7-5.57,25.64c-6.37,4.63-42.74,12.26-48.68,28.24A174.61,174.61,0,0,0,0,162.56H151.62A175.08,175.08,0,0,0,143.45,132.45Z" transform="translate(2.36)"/><path class="cls-3" d="M60,100.54c6.27-.64,12.56-1.91,18-5a61.56,61.56,0,0,0,10.87-7.8,60.14,60.14,0,0,1,.35-9.21l-13.38.35-13.38-.35S64.28,92.59,60,100.54Z" transform="translate(2.36)"/><path class="cls-4" d="M144.77,132.23c-2.18-5.85-8.4-10.59-15.76-14.47-13.12,9-31.73,14.56-52.38,14.56s-39.24-5.6-52.37-14.56c-7.35,3.89-13.58,8.62-15.76,14.47A175.74,175.74,0,0,0,.27,162.56H153A175.74,175.74,0,0,0,144.77,132.23Z" transform="translate(2.36)"/><g class="cls-5"><circle class="cls-6" cx="110.51" cy="133" r="9.57"/><circle class="cls-6" cx="76.86" cy="133" r="9.57"/><circle class="cls-6" cx="43.22" cy="133" r="9.57"/><circle class="cls-6" cx="9.57" cy="133" r="9.57"/><circle class="cls-6" cx="144.15" cy="133" r="9.57"/><circle class="cls-6" cx="126.27" cy="158.9" r="9.57"/><circle class="cls-6" cx="92.63" cy="158.9" r="9.57"/><circle class="cls-6" cx="58.98" cy="158.9" r="9.57"/><circle class="cls-6" cx="25.34" cy="158.9" r="9.57"/><circle class="cls-6" cx="159.92" cy="158.9" r="9.57"/></g><path class="cls-3" d="M97.61,47.86c2.16-6.7,7.27-5.15,7.75-5s5.79.85,4.88,7.83-5,10.83-8.82,9.72C97.49,59.79,95.43,54.61,97.61,47.86Z" transform="translate(2.36)"/><path class="cls-2" d="M102.07,37.32C99.39,7.93,77.05,9.58,74.94,9.8c-2.11-.22-24.45-1.87-27.13,27.52C45.12,66.88,58.29,86.19,74.94,85.13,91.59,86.19,104.76,66.88,102.07,37.32Z" transform="translate(2.36)"/><path class="cls-3" d="M78.13,47.35c.16.47.28.95.42,1.43s.24.95.36,1.43c.21,1,.4,1.92.57,2.89s.33,1.93.44,2.91.24,1.94.32,2.92l0,.25-.16.14c-.58.5-1.19,1-1.8,1.48s-1.22,1-1.88,1.39c.48-.63,1-1.2,1.5-1.8s1-1.16,1.57-1.72l-.13.39c-.2-1-.37-1.93-.52-2.9s-.27-1.94-.39-2.91-.2-2-.26-2.94c0-.49,0-1,0-1.47S78.11,47.85,78.13,47.35Z" transform="translate(2.36)"/><path class="cls-7" d="M62,66.51l26.52-.27S77.92,76.67,62,66.51Z" transform="translate(2.36)"/><path class="cls-3" d="M68.8,71.84s.29.06.77.19a18.78,18.78,0,0,0,2,.52c.42.07.87.15,1.33.25A13.66,13.66,0,0,0,74.4,73,8.46,8.46,0,0,0,76,73c.54,0,1.09,0,1.64,0l1.62-.26a10.52,10.52,0,0,0,1.54-.4,8.35,8.35,0,0,0,1.41-.49l1.24-.54a7.35,7.35,0,0,0,1-.54l.77-.46.7-.39s-.19.21-.56.56l-.67.63a4.9,4.9,0,0,1-.93.75c-.37.23-.77.49-1.21.75a6.39,6.39,0,0,1-1.45.65l-.79.3-.41.15-.43.08-1.74.31c-.59,0-1.19,0-1.77,0a7.91,7.91,0,0,1-1.7-.17,9.24,9.24,0,0,1-1.55-.33c-.49-.15-.94-.31-1.36-.45a5.16,5.16,0,0,1-1.08-.49l-.8-.43Z" transform="translate(2.36)"/><path class="cls-6" d="M61,47.8c0,2.21.82,4,1.84,4s1.83-1.79,1.83-4-.82-4-1.83-4S61,45.58,61,47.8Z" transform="translate(2.36)"/><path class="cls-6" d="M86.26,47.8c0,2.21.82,4,1.83,4s1.83-1.79,1.83-4-.82-4-1.83-4S86.26,45.58,86.26,47.8Z" transform="translate(2.36)"/><path class="cls-6" d="M56.54,41.24a6.74,6.74,0,0,1,1.31-2.08,7.8,7.8,0,0,1,.87-.84,6.94,6.94,0,0,1,1.12-.79,8.94,8.94,0,0,1,1.36-.63,7.31,7.31,0,0,1,1.56-.31c.27,0,.54,0,.81,0s.54.07.8.1a6,6,0,0,1,1.49.44,7.44,7.44,0,0,1,1.21.72,4.63,4.63,0,0,1,.91.84,3.43,3.43,0,0,1,.64.78c.17.26.3.49.4.68a5.76,5.76,0,0,1,.3.59s-.23-.1-.6-.3L68.07,40a6.93,6.93,0,0,0-.82-.42,7.7,7.7,0,0,0-1-.41,9.32,9.32,0,0,0-1.06-.33,6.19,6.19,0,0,0-1.13-.18l-.57,0-.58.05a7.86,7.86,0,0,0-1.17.17c-.37.14-.77.2-1.13.36a10.37,10.37,0,0,0-1.07.43c-.36.14-.67.32-1,.45l-.83.44-.65.35Z" transform="translate(2.36)"/><path class="cls-6" d="M81.93,41.24a6.74,6.74,0,0,1,1.31-2.08,7.8,7.8,0,0,1,.87-.84,6.94,6.94,0,0,1,1.12-.79,8.94,8.94,0,0,1,1.36-.63,7.44,7.44,0,0,1,1.56-.31c.27,0,.54,0,.81,0s.54.07.8.1a6,6,0,0,1,1.49.44,8,8,0,0,1,1.22.72,4.86,4.86,0,0,1,.9.84,3.43,3.43,0,0,1,.64.78c.17.26.3.49.4.68a5.76,5.76,0,0,1,.3.59s-.23-.1-.6-.3c-.18-.1-.41-.22-.64-.36a8,8,0,0,0-.83-.42,7.7,7.7,0,0,0-1-.41,9.32,9.32,0,0,0-1.06-.33,6.22,6.22,0,0,0-1.12-.18l-.58,0-.58.05a8.05,8.05,0,0,0-1.17.17c-.37.14-.77.2-1.13.36a11.37,11.37,0,0,0-1.07.43c-.35.14-.67.32-1,.45l-.83.44-.65.35Z" transform="translate(2.36)"/><path class="cls-8" d="M56.91,14.64s.67,18.58,22.89,21.89l-7.63-9s10.62,9.28,22.56,8a27.16,27.16,0,0,0-8-11.61s23.55,10.28,8.62,54.73c0,0,17.25-21.56,12.94-47.77C103.2-.26,76.44-3.42,64.87,2.37,54.92,7.34,56.91,14.64,56.91,14.64Z" transform="translate(2.36)"/><path class="cls-8" d="M60.56,7.67S42.79,2.4,37,28.24C32,50.46,42,71,59.23,84.63c0,0-9.95-9.62-10.61-34.17S63.21,14,68.85,11.65,60.56,7.67,60.56,7.67Z" transform="translate(2.36)"/><path class="cls-9" d="M108.33,30.89a50.86,50.86,0,0,0-2-8.11A54.39,54.39,0,0,1,98.73,40c2.44,8.38,2.69,20.75-3.34,38.71C95.39,78.66,112.64,57.1,108.33,30.89Z" transform="translate(2.36)"/><path class="cls-9" d="M48.62,50.46a50.1,50.1,0,0,1,1.7-14.72c-.58-.35-1.14-.71-1.7-1.08-4-2.64-7.73-5.49-10.49-9.45l-.24-.36c-.32,1.06-.61,2.19-.88,3.39C32,50.46,42,71,59.23,84.63,59.23,84.63,49.28,75,48.62,50.46Z" transform="translate(2.36)"/><path class="cls-3" d="M42.4,44.41c-1.17,1.11-2.12,3-1.69,6.29.69,5.24,3.13,8.69,5.91,9.64A158.86,158.86,0,0,1,42.4,44.41Z" transform="translate(2.36)"/></g></g></svg>