<svg xmlns="http://www.w3.org/2000/svg" xmlns:xlink="http://www.w3.org/1999/xlink" viewBox="0 0 156.97 165.4"><defs><style>.cls-1{fill:none;}.cls-2{fill:#edcfb7;}.cls-3{fill:#f19c7c;}.cls-4{fill:#d88971;}.cls-5{fill:#765e69;}.cls-6{clip-path:url(#clip-path);}.cls-7{fill:#ffa65b;}.cls-8{fill:#fddec0;}.cls-9{fill:#b26e59;}.cls-10{fill:#fff;}.cls-11{fill:#352c38;}</style><clipPath id="clip-path" transform="translate(4.23)"><path class="cls-1" d="M144.5,135.08c-5.4-14.52-35.71-22.19-46.32-27l.17-.1c-4.64-2.55-5.8-9.28-5.8-9.28l-33.64,1.63c-1.16,5.1-6.25,8.4-6.25,8.4l.16.09C41,113.68,13.37,121.29,8.24,135.08A176.4,176.4,0,0,0,0,165.4H152.74A176.4,176.4,0,0,0,144.5,135.08Z"/></clipPath></defs><g id="Layer_2" data-name="Layer 2"><g id="OBJECTS"><path class="cls-2" d="M67.86,97.5s-7.66,2-13.33-2l1,2.67s-12-5.34-13-27,7-21.34,7-21.34S71.53,79.83,67.86,97.5Z" transform="translate(4.23)"/><path class="cls-2" d="M118.53,63.83s4.5,19-12.5,27v-6.5s-4,12-21,14-8.5-23.5-8.5-23.5l8.5-22,33.5,9" transform="translate(4.23)"/><path class="cls-3" d="M143.45,135.3c-5.95-16-42.32-23.61-48.69-28.24-8.17-6-5.57-25.64-5.57-25.64l-13.38.35-13.38-.35s2.6,19.69-5.57,25.64c-6.37,4.63-42.74,12.26-48.68,28.24A174.64,174.64,0,0,0,0,165.4H151.62A175.11,175.11,0,0,0,143.45,135.3Z" transform="translate(4.23)"/><path class="cls-4" d="M60,103.39c6.27-.64,12.56-1.91,18-5a61.56,61.56,0,0,0,10.87-7.8,60.14,60.14,0,0,1,.35-9.21l-13.38.35-13.38-.35S64.28,95.43,60,103.39Z" transform="translate(4.23)"/><path class="cls-5" d="M144.5,135.08c-5.4-14.52-35.71-22.19-46.32-27l.17-.1c-4.64-2.55-5.8-9.28-5.8-9.28l-33.64,1.63c-1.16,5.1-6.25,8.4-6.25,8.4l.16.09C41,113.68,13.37,121.29,8.24,135.08A176.4,176.4,0,0,0,0,165.4H152.74A176.4,176.4,0,0,0,144.5,135.08Z" transform="translate(4.23)"/><g class="cls-6"><path class="cls-7" d="M114.34,103.78l4,3.84c.33.32.93,0,1.19-.2l4.78-4.61a.46.46,0,0,0-.2-.75,1,1,0,0,0-1,.28L118.27,107l1.18-.2-4-3.85c-.49-.47-1.76.27-1.13.88Z" transform="translate(4.23)"/><path class="cls-7" d="M97.31,103.63l4,3.84c.3.3,1,.09,1.28-.17l4.78-4.61c.22-.22.16-.44-.14-.51a1.28,1.28,0,0,0-1,.28l-4.78,4.61,1.27-.17-4-3.85c-.37-.35-1.76.21-1.37.58Z" transform="translate(4.23)"/><path class="cls-7" d="M80.39,103.61l4,3.85c.32.31,1.11,0,1.36-.29l4.79-4.62c.25-.24-.22-.34-.38-.34a1.52,1.52,0,0,0-1,.38l-4.78,4.62,1.37-.29-4-3.85c-.32-.31-1.7.24-1.38.54Z" transform="translate(4.23)"/><path class="cls-7" d="M63.49,103.63l4,3.85c.32.3,1,.1,1.28-.16l4.78-4.62c.23-.22.16-.46-.14-.54a1.27,1.27,0,0,0-1,.28l-4.79,4.62,1.28-.17-4-3.84c-.38-.37-1.78.19-1.37.58Z" transform="translate(4.23)"/><path class="cls-7" d="M46.59,103.67l4,3.84a.93.93,0,0,0,1.3-.1l4.78-4.62a.44.44,0,0,0-.2-.72,1,1,0,0,0-1,.28L50.63,107l1.29-.1-4-3.84a.88.88,0,0,0-1-.12c-.22.11-.62.5-.34.77Z" transform="translate(4.23)"/><path class="cls-7" d="M29.67,103.63l4,3.85c.31.3,1,.1,1.28-.17l4.78-4.61c.23-.22.16-.45-.14-.53a1.2,1.2,0,0,0-1,.28l-4.79,4.61,1.28-.17-4-3.84c-.38-.36-1.78.19-1.37.58Z" transform="translate(4.23)"/><path class="cls-7" d="M12.76,103.64l4,3.84a1,1,0,0,0,1.28-.15l4.79-4.61c.23-.23.14-.48-.16-.57a1.17,1.17,0,0,0-1,.28L16.83,107l1.28-.15-4-3.85c-.39-.38-1.79.19-1.36.6Z" transform="translate(4.23)"/><path class="cls-7" d="M-4.16,103.62l4,3.84c.28.28,1,.05,1.27-.18l4.78-4.62c.22-.2.18-.39-.12-.46a1.42,1.42,0,0,0-1,.28l-4.78,4.61,1.27-.18-4-3.85c-.34-.32-1.73.22-1.38.56Z" transform="translate(4.23)"/><path class="cls-7" d="M131.12,103.61l4,3.85c.32.31,1.11,0,1.37-.29l4.78-4.62c.25-.24-.22-.34-.38-.34a1.47,1.47,0,0,0-1,.38l-4.78,4.61,1.37-.29-4-3.84c-.32-.31-1.7.23-1.38.54Z" transform="translate(4.23)"/><path class="cls-7" d="M114.22,103.64l4,3.84c.32.31,1,.11,1.28-.16l4.79-4.61c.23-.22.15-.47-.15-.55a1.26,1.26,0,0,0-1.05.28l-4.78,4.61,1.28-.16-4-3.84c-.39-.37-1.79.19-1.37.59Z" transform="translate(4.23)"/><path class="cls-7" d="M97.3,103.6l4,3.84c.28.27,1.14-.08,1.37-.3l4.78-4.62c.24-.23-.21-.26-.35-.26a1.69,1.69,0,0,0-1,.36l-4.78,4.61,1.36-.3-4-3.84c-.29-.28-1.64.27-1.39.51Z" transform="translate(4.23)"/><path class="cls-7" d="M80.4,103.63l4,3.84c.3.3,1,.09,1.28-.17l4.78-4.61c.22-.22.16-.44-.14-.51a1.27,1.27,0,0,0-1,.28l-4.78,4.61,1.27-.17-4-3.85c-.37-.35-1.76.21-1.37.58Z" transform="translate(4.23)"/><path class="cls-7" d="M63.49,103.66l4,3.84a1,1,0,0,0,1.29-.13l4.78-4.61a.37.37,0,0,0-.18-.65,1.06,1.06,0,0,0-1,.28L67.55,107l1.29-.13-4-3.84a.89.89,0,0,0-1-.08c-.21.09-.63.45-.37.71Z" transform="translate(4.23)"/><path class="cls-7" d="M46.58,103.63l4,3.85c.32.3,1,.1,1.28-.16l4.78-4.62c.23-.22.16-.46-.14-.54a1.26,1.26,0,0,0-1,.28l-4.78,4.62,1.28-.17-4-3.84c-.39-.37-1.78.19-1.37.58Z" transform="translate(4.23)"/><path class="cls-7" d="M29.66,103.6l4,3.85c.29.27,1.13-.08,1.37-.31l4.78-4.61c.25-.24-.21-.28-.36-.28a1.57,1.57,0,0,0-1,.36l-4.79,4.62,1.37-.3-4-3.85c-.29-.28-1.65.27-1.38.52Z" transform="translate(4.23)"/><path class="cls-7" d="M12.76,103.64l4,3.85a1.06,1.06,0,0,0,1.29-.15l4.78-4.62c.23-.22.14-.49-.16-.58a1.17,1.17,0,0,0-1,.28L16.83,107l1.28-.14-4-3.85c-.4-.39-1.8.18-1.36.6Z" transform="translate(4.23)"/><path class="cls-7" d="M-4,103.78l4,3.85A.94.94,0,0,0,1,107.55l4.78-4.62c.72-.69-.43-1.26-1-.72L0,106.83l1.06-.08-4-3.85c-.5-.48-1.76.27-1.14.88Z" transform="translate(4.23)"/><path class="cls-7" d="M131.12,103.6l4,3.84c.29.28,1.14-.07,1.37-.3l4.78-4.61c.25-.24-.21-.28-.36-.28a1.61,1.61,0,0,0-1,.37l-4.78,4.61,1.36-.3-4-3.85c-.3-.28-1.65.27-1.39.52Z" transform="translate(4.23)"/><path class="cls-7" d="M114.22,160.24l4,3.84a1,1,0,0,0,1.28-.13l4.79-4.61a.37.37,0,0,0-.17-.64,1.13,1.13,0,0,0-1,.28l-4.78,4.61,1.29-.13-4-3.84a.91.91,0,0,0-1-.07c-.2.09-.63.44-.37.69Z" transform="translate(4.23)"/><path class="cls-7" d="M97.29,160.17l4,3.85c.23.22,1.16-.13,1.36-.32l4.78-4.61c.23-.22-.2-.21-.33-.2a1.81,1.81,0,0,0-1,.34l-4.79,4.62,1.37-.32-4-3.84c-.18-.17-.76,0-.94.1s-.62.22-.46.38Z" transform="translate(4.23)"/><path class="cls-7" d="M80.4,160.25l4,3.84a.94.94,0,0,0,1.29-.11l4.78-4.61a.41.41,0,0,0-.18-.7,1.08,1.08,0,0,0-1,.28l-4.78,4.62,1.29-.12-4-3.84a.88.88,0,0,0-1-.1c-.21.1-.63.48-.36.74Z" transform="translate(4.23)"/><path class="cls-7" d="M63.48,160.2l4,3.85c.28.27,1,0,1.27-.19l4.78-4.61c.21-.21.18-.4-.12-.46a1.39,1.39,0,0,0-1,.28l-4.79,4.62,1.28-.19-4-3.85c-.34-.32-1.72.22-1.38.55Z" transform="translate(4.23)"/><path class="cls-7" d="M46.57,160.21l4,3.85c.3.29,1,.07,1.28-.18l4.78-4.61c.22-.21.16-.43-.14-.5a1.28,1.28,0,0,0-1,.28l-4.78,4.61,1.27-.17-4-3.85c-.36-.34-1.75.21-1.38.57Z" transform="translate(4.23)"/><path class="cls-7" d="M29.67,160.22l4,3.85c.32.3,1,.1,1.28-.17l4.78-4.61c.23-.22.16-.46-.14-.54a1.26,1.26,0,0,0-1,.28l-4.78,4.61,1.28-.16-4-3.84c-.39-.37-1.78.19-1.37.58Z" transform="translate(4.23)"/><path class="cls-7" d="M12.75,160.21l4,3.84c.29.29,1,.07,1.27-.18l4.79-4.61c.21-.21.17-.41-.13-.48a1.33,1.33,0,0,0-1.05.28l-4.78,4.61,1.27-.18-4-3.84c-.35-.34-1.74.21-1.38.56Z" transform="translate(4.23)"/><path class="cls-7" d="M-4.16,160.2l4,3.85c.28.27,1,0,1.27-.19l4.78-4.61c.21-.21.18-.4-.12-.46a1.38,1.38,0,0,0-1,.28l-4.79,4.62,1.27-.19-4-3.85c-.34-.32-1.72.22-1.38.55Z" transform="translate(4.23)"/><path class="cls-7" d="M131.11,160.17l4,3.85c.24.23,1.16-.12,1.36-.31l4.79-4.62c.23-.22-.21-.22-.34-.21a1.81,1.81,0,0,0-1,.35l-4.78,4.61,1.36-.31-4-3.85c-.26-.25-1.59.31-1.4.49Z" transform="translate(4.23)"/><path class="cls-7" d="M123,145.45l4,3.84c.29.28,1,.06,1.27-.18l4.78-4.62c.22-.2.18-.4-.12-.47a1.38,1.38,0,0,0-1.05.28l-4.78,4.61,1.27-.18-4-3.84c-.35-.34-1.74.21-1.38.56Z" transform="translate(4.23)"/><path class="cls-7" d="M106.08,145.47l4,3.85a1,1,0,0,0,1.29-.14l4.78-4.61A.35.35,0,0,0,116,144a1.1,1.1,0,0,0-1,.28l-4.78,4.61,1.29-.14-4-3.84c-.43-.41-1.83.17-1.36.61Z" transform="translate(4.23)"/><path class="cls-7" d="M89.16,145.44l4,3.84c.33.31,1.11,0,1.37-.29l4.79-4.61c.25-.25-.22-.34-.38-.34a1.42,1.42,0,0,0-1,.38L93.16,149l1.37-.29-4-3.84c-.32-.32-1.7.23-1.38.54Z" transform="translate(4.23)"/><path class="cls-7" d="M72.26,145.48l4,3.84a1,1,0,0,0,1.28-.12l4.79-4.61a.39.39,0,0,0-.18-.66,1.08,1.08,0,0,0-1,.28l-4.78,4.61,1.28-.12-4-3.85a.93.93,0,0,0-1-.08c-.2.1-.62.46-.36.71Z" transform="translate(4.23)"/><path class="cls-7" d="M55.34,145.45l4,3.84c.29.28,1,.07,1.27-.18l4.78-4.61c.22-.21.18-.42-.13-.48a1.27,1.27,0,0,0-1,.28l-4.78,4.61,1.27-.18-4-3.85c-.36-.33-1.74.22-1.38.57Z" transform="translate(4.23)"/><path class="cls-7" d="M38.42,145.41l4,3.84c.23.23,1.16-.12,1.36-.31l4.78-4.61c.23-.23-.21-.21-.34-.2a1.87,1.87,0,0,0-1,.34l-4.78,4.61,1.36-.31-4-3.85c-.18-.17-.76.05-1,.11s-.62.22-.45.38Z" transform="translate(4.23)"/><path class="cls-7" d="M21.52,145.44l4,3.84c.33.31,1.11,0,1.37-.29l4.79-4.61c.25-.25-.22-.34-.38-.34a1.42,1.42,0,0,0-1,.38L25.52,149l1.36-.29-4-3.84c-.33-.32-1.7.23-1.38.54Z" transform="translate(4.23)"/><path class="cls-7" d="M4.62,145.49l4,3.84a.94.94,0,0,0,1.29-.12l4.78-4.61a.41.41,0,0,0-.18-.69,1.1,1.1,0,0,0-1.05.28l-4.78,4.62,1.29-.12-4-3.84a.89.89,0,0,0-1-.1c-.21.1-.63.48-.36.74Z" transform="translate(4.23)"/><path class="cls-7" d="M139.89,145.43l4,3.85c.32.3,1.12-.05,1.37-.29l4.78-4.62c.26-.24-.21-.32-.37-.32a1.53,1.53,0,0,0-1,.37L143.89,149l1.37-.3-4-3.84c-.31-.3-1.68.24-1.38.53Z" transform="translate(4.23)"/><path class="cls-7" d="M114.34,132.08l4,3.84a.9.9,0,0,0,1.07-.07l4.78-4.61c.71-.7-.43-1.29-1-.74l-4.78,4.61,1.06-.08-4-3.84c-.51-.49-1.77.28-1.13.89Z" transform="translate(4.23)"/><path class="cls-7" d="M97.43,132.07l4,3.85c.33.32.93,0,1.19-.21l4.78-4.61a.46.46,0,0,0-.2-.75,1,1,0,0,0-1,.28l-4.79,4.62,1.19-.21-4-3.84c-.49-.48-1.76.27-1.13.87Z" transform="translate(4.23)"/><path class="cls-7" d="M80.38,131.88l4,3.85c.25.23,1.15-.11,1.36-.31l4.79-4.62c.23-.22-.22-.23-.35-.22a1.88,1.88,0,0,0-1,.35l-4.78,4.61,1.36-.31-4-3.84c-.27-.26-1.6.3-1.4.49Z" transform="translate(4.23)"/><path class="cls-7" d="M63.49,132l4,3.85a1,1,0,0,0,1.29-.12l4.78-4.61a.41.41,0,0,0-.18-.69,1.05,1.05,0,0,0-1,.28l-4.79,4.62,1.29-.12-4-3.84a.89.89,0,0,0-1-.1c-.21.1-.63.48-.36.73Z" transform="translate(4.23)"/><path class="cls-7" d="M46.58,132l4,3.84a.94.94,0,0,0,1.29-.11l4.78-4.62a.41.41,0,0,0-.18-.69,1.05,1.05,0,0,0-1.05.28l-4.78,4.61,1.29-.11-4-3.85a.91.91,0,0,0-1-.1c-.21.1-.63.49-.36.75Z" transform="translate(4.23)"/><path class="cls-7" d="M29.66,131.89l4,3.85c.29.28,1.13-.07,1.37-.3l4.78-4.61c.25-.24-.21-.29-.36-.29a1.58,1.58,0,0,0-1,.37l-4.79,4.61,1.37-.3-4-3.84c-.29-.29-1.65.26-1.38.51Z" transform="translate(4.23)"/><path class="cls-7" d="M12.75,131.92l4,3.85c.31.29,1,.09,1.28-.17L22.8,131c.23-.22.16-.45-.14-.52a1.23,1.23,0,0,0-1,.28l-4.79,4.61,1.28-.17-4-3.84c-.37-.36-1.77.19-1.38.57Z" transform="translate(4.23)"/><path class="cls-7" d="M-4.15,132l4,3.85a1,1,0,0,0,1.29-.12l4.78-4.61a.4.4,0,0,0-.18-.68,1.06,1.06,0,0,0-1,.28L-.1,135.28l1.29-.12-4-3.84a.87.87,0,0,0-1-.09c-.21.09-.63.46-.36.72Z" transform="translate(4.23)"/><path class="cls-7" d="M131.14,132l4,3.84a.94.94,0,0,0,1.29-.11l4.79-4.62a.41.41,0,0,0-.19-.69,1.05,1.05,0,0,0-1,.28l-4.78,4.61,1.29-.11-4-3.85a.91.91,0,0,0-1-.1c-.21.1-.63.49-.35.75Z" transform="translate(4.23)"/><path class="cls-7" d="M122.36,117.18l4,3.84a1,1,0,0,0,1.28-.14l4.79-4.61c.24-.23.13-.51-.17-.61a1.14,1.14,0,0,0-1,.28l-4.78,4.61,1.28-.14-4-3.84c-.41-.41-1.81.17-1.36.61Z" transform="translate(4.23)"/><path class="cls-7" d="M105.45,117.18l4,3.84a1,1,0,0,0,1.28-.14l4.78-4.61a.34.34,0,0,0-.16-.61,1.14,1.14,0,0,0-1,.28l-4.78,4.61,1.28-.14-4-3.84c-.41-.4-1.81.17-1.36.61Z" transform="translate(4.23)"/><path class="cls-7" d="M88.53,117.12l4,3.85c.25.24,1.15-.11,1.37-.31L98.66,116c.23-.22-.21-.23-.35-.22a1.73,1.73,0,0,0-1,.35l-4.78,4.61,1.37-.31-4-3.85c-.27-.25-1.6.3-1.39.5Z" transform="translate(4.23)"/><path class="cls-7" d="M71.63,117.19l4,3.84a1,1,0,0,0,1.29-.13l4.78-4.61a.37.37,0,0,0-.17-.65,1.11,1.11,0,0,0-1,.28l-4.78,4.61L77,120.4l-4-3.84a.91.91,0,0,0-1-.08c-.2.1-.63.45-.37.71Z" transform="translate(4.23)"/><path class="cls-7" d="M54.71,117.15l4,3.85c.28.27,1,0,1.27-.19l4.79-4.61c.21-.21.17-.4-.13-.47a1.38,1.38,0,0,0-1,.28l-4.79,4.62,1.28-.19-4-3.84c-.34-.33-1.73.21-1.38.55Z" transform="translate(4.23)"/><path class="cls-7" d="M37.81,117.19l4,3.85a1,1,0,0,0,1.29-.13l4.78-4.61a.39.39,0,0,0-.18-.67,1.06,1.06,0,0,0-1,.28l-4.78,4.61,1.29-.12-4-3.84a.89.89,0,0,0-1-.09c-.2.09-.62.46-.36.72Z" transform="translate(4.23)"/><path class="cls-7" d="M20.9,117.16l4,3.85c.31.3,1,.09,1.28-.17l4.78-4.61c.23-.22.16-.45-.14-.53a1.23,1.23,0,0,0-1,.28L25,120.59l1.28-.16-4-3.85c-.38-.36-1.77.2-1.37.58Z" transform="translate(4.23)"/><path class="cls-7" d="M4,117.17,8,121c.33.31,1,.12,1.29-.15L14,116.25c.23-.23.14-.48-.15-.57a1.26,1.26,0,0,0-1.05.28l-4.78,4.62,1.28-.16-4-3.84c-.4-.38-1.79.18-1.37.59Z" transform="translate(4.23)"/><path class="cls-7" d="M139.27,117.15l4,3.84c.28.28,1,.05,1.27-.18l4.79-4.62c.21-.2.18-.39-.13-.46a1.39,1.39,0,0,0-1,.28l-4.78,4.62,1.27-.19-4-3.84c-.34-.33-1.72.22-1.37.55Z" transform="translate(4.23)"/></g><path class="cls-8" d="M65.86,13.17S49-2.17,37.53,18.33s3.5,53-8,67c0,0,12,13,16-7S51,25.83,51,25.83Z" transform="translate(4.23)"/><path class="cls-8" d="M63,15.33s-.25-.31-.76-.82a24,24,0,0,0-2.38-2.08A17.55,17.55,0,0,0,55.62,10a11.33,11.33,0,0,0-6-.73,12.54,12.54,0,0,0-6.3,3.28A28,28,0,0,0,38.24,19c-.34.63-.74,1.28-1.06,1.93s-.62,1.28-.89,2a40.94,40.94,0,0,0-1.46,4.21,52.44,52.44,0,0,0-1.63,9c-.32,3.06-.45,6.16-.49,9.22s0,6.09,0,9a121.42,121.42,0,0,1-.58,16.1,35.17,35.17,0,0,1-1.31,6.34,22,22,0,0,1-1.95,4.6c-.17.3-.32.59-.49.85l-.5.7A9.33,9.33,0,0,1,27.05,84l-.76.84.67-.9a8.94,8.94,0,0,0,.73-1.13l.43-.73c.14-.27.27-.57.42-.87a22.42,22.42,0,0,0,1.57-4.61A41,41,0,0,0,31,70.29c.17-2.32.21-4.84.19-7.52S31,57.27,31,54.34s-.21-6-.18-9.07.12-6.26.44-9.42A53.33,53.33,0,0,1,33,26.52a36.12,36.12,0,0,1,1.6-4.41c.3-.72.69-1.42,1-2.11s.75-1.29,1.12-1.93a27.71,27.71,0,0,1,5.61-6.65,13.35,13.35,0,0,1,7.12-3.28,11.64,11.64,0,0,1,6.47,1.18,18.11,18.11,0,0,1,4.14,2.81,20,20,0,0,1,2.22,2.3C62.74,15,63,15.33,63,15.33Z" transform="translate(4.23)"/><path class="cls-4" d="M51.53,49.43c-2.16-6.7-7.28-5.15-7.76-5s-5.79.84-4.87,7.83,5,10.83,8.81,9.71C51.65,61.36,53.7,56.17,51.53,49.43Z" transform="translate(4.23)"/><path class="cls-4" d="M97.61,50.71c2.16-6.7,7.27-5.15,7.75-5s5.79.85,4.88,7.83-5,10.83-8.82,9.71C97.49,62.64,95.43,57.46,97.61,50.71Z" transform="translate(4.23)"/><path class="cls-3" d="M102.07,40.17c-2.68-29.39-25-27.74-27.13-27.52-2.11-.22-24.45-1.87-27.13,27.52C45.12,69.73,58.29,89,74.94,88,91.59,89,104.76,69.73,102.07,40.17Z" transform="translate(4.23)"/><path class="cls-9" d="M78.13,50.2c.16.47.28.95.42,1.43s.24.95.36,1.43c.21,1,.4,1.92.57,2.89s.33,1.93.44,2.9.23,1.95.32,2.93l0,.25-.16.14c-.58.5-1.19,1-1.8,1.47s-1.22,1-1.88,1.4c.48-.63,1-1.2,1.5-1.81s1-1.15,1.57-1.71l-.13.38c-.2-1-.37-1.92-.52-2.89s-.27-1.94-.39-2.92-.2-2-.26-2.93c0-.49,0-1,0-1.48S78.11,50.7,78.13,50.2Z" transform="translate(4.23)"/><path class="cls-10" d="M62,69.36l26.52-.28S77.92,79.52,62,69.36Z" transform="translate(4.23)"/><path class="cls-9" d="M68.8,74.69s.29.06.77.19a19.12,19.12,0,0,0,2,.51c.42.08.87.15,1.33.25a11.52,11.52,0,0,0,1.49.16,8.46,8.46,0,0,0,1.6.07c.54,0,1.09,0,1.64-.06l1.62-.25a9.4,9.4,0,0,0,1.54-.41,7.54,7.54,0,0,0,1.41-.48l1.24-.55a5.69,5.69,0,0,0,1-.54l.77-.45c.44-.26.7-.39.7-.39s-.19.21-.56.56l-.67.62a4.57,4.57,0,0,1-.93.76c-.37.23-.77.49-1.21.74a6,6,0,0,1-1.45.66l-.79.3-.41.15-.43.08-1.74.31c-.59,0-1.19,0-1.77,0a7.91,7.91,0,0,1-1.7-.18,8.34,8.34,0,0,1-1.55-.32c-.49-.15-.94-.31-1.36-.46a5.16,5.16,0,0,1-1.08-.48l-.8-.43Z" transform="translate(4.23)"/><path class="cls-11" d="M61,50.64c0,2.22.82,4,1.84,4s1.83-1.79,1.83-4-.82-4-1.83-4S61,48.43,61,50.64Z" transform="translate(4.23)"/><path class="cls-11" d="M86.26,50.64c0,2.22.82,4,1.83,4s1.83-1.79,1.83-4-.82-4-1.83-4S86.26,48.43,86.26,50.64Z" transform="translate(4.23)"/><path class="cls-11" d="M56.54,44.09A6.61,6.61,0,0,1,57.85,42a7.8,7.8,0,0,1,.87-.84,6.94,6.94,0,0,1,1.12-.79,6.69,6.69,0,0,1,2.92-1l.81,0c.27,0,.54.06.8.1a5.59,5.59,0,0,1,1.49.44,6.79,6.79,0,0,1,1.21.72,4.92,4.92,0,0,1,.91.83,3.7,3.7,0,0,1,.64.79c.17.25.3.49.4.67a6.42,6.42,0,0,1,.3.6s-.23-.1-.6-.3c-.19-.1-.41-.22-.65-.37a8.93,8.93,0,0,0-.82-.41,6.45,6.45,0,0,0-1-.41,9.35,9.35,0,0,0-1.06-.34,7.17,7.17,0,0,0-1.13-.17l-.57,0-.58.05a7.86,7.86,0,0,0-1.17.17c-.37.13-.77.19-1.13.35a10.39,10.39,0,0,0-1.07.44c-.35.13-.67.31-1,.45l-.83.44-.65.35Z" transform="translate(4.23)"/><path class="cls-11" d="M81.93,44.09A6.61,6.61,0,0,1,83.24,42a7.8,7.8,0,0,1,.87-.84,6.94,6.94,0,0,1,1.12-.79,6.69,6.69,0,0,1,2.92-1l.81,0c.27,0,.54.06.8.1a5.59,5.59,0,0,1,1.49.44,7.26,7.26,0,0,1,1.22.72,5.18,5.18,0,0,1,.9.83,3.7,3.7,0,0,1,.64.79c.17.25.3.49.4.67a6.42,6.42,0,0,1,.3.6s-.23-.1-.6-.3c-.18-.1-.41-.22-.64-.37s-.54-.26-.83-.41a6.45,6.45,0,0,0-1-.41,9.35,9.35,0,0,0-1.06-.34,7.22,7.22,0,0,0-1.12-.17l-.58,0-.58.05a8.05,8.05,0,0,0-1.17.17c-.37.13-.77.19-1.13.35a11.4,11.4,0,0,0-1.07.44c-.35.13-.67.31-1,.45l-.83.44-.65.35Z" transform="translate(4.23)"/><path class="cls-8" d="M61.53,20.83S73,8.83,80,18.33s19,45,39,47.5c0,0,3.83-41.33-14.17-57.33C86-8.26,61,1.83,61.53,20.83Z" transform="translate(4.23)"/><path class="cls-8" d="M110.53,66.83l-.9-.07a15.87,15.87,0,0,1-2.52-.52,20.38,20.38,0,0,1-7.89-4.79,35.6,35.6,0,0,1-4.14-4.62,59.35,59.35,0,0,1-3.81-5.73c-1.19-2.06-2.34-4.23-3.42-6.47s-2.08-4.56-3.06-6.88S82.92,33.1,82,30.81s-1.77-4.53-2.66-6.66a32.63,32.63,0,0,0-2.94-5.79,6.91,6.91,0,0,0-4.17-3,8.37,8.37,0,0,0-4.58.58,19.35,19.35,0,0,0-3.4,1.78,24.62,24.62,0,0,0-2.73,2.07s.19-.25.56-.7a19.64,19.64,0,0,1,1.78-1.86,16.4,16.4,0,0,1,3.28-2.38,9.29,9.29,0,0,1,5.34-1.26,7.31,7.31,0,0,1,3.15,1A10.7,10.7,0,0,1,78.27,17a29.5,29.5,0,0,1,3.49,6.07c1,2.15,2,4.39,2.88,6.68s1.87,4.58,2.82,6.89,1.91,4.59,2.92,6.8,2,4.39,3.1,6.42,2.17,4,3.33,5.73a42.27,42.27,0,0,0,3.57,4.71,26.15,26.15,0,0,0,3.63,3.4,18.6,18.6,0,0,0,3.3,2,19.88,19.88,0,0,0,2.35.89Z" transform="translate(4.23)"/><path class="cls-8" d="M61.53,20.83s3-3.85,1.43-5.5c-3.56-3.65-16.21-6.09-17.93,8-2.5,20.5,8,53.5-9.5,71,0,0,5.5,6.5,11.5-2.5,0,0-2,6-5.5,6.5,0,0,8.5,1.5,10.5-10.5S48,21.83,61.53,20.83Z" transform="translate(4.23)"/></g></g></svg>