<svg xmlns="http://www.w3.org/2000/svg" xmlns:xlink="http://www.w3.org/1999/xlink" viewBox="0 0 163.33 200.29"><defs><style>.cls-1,.cls-6{fill:none;}.cls-2{fill:#965450;}.cls-3{fill:#76413b;}.cls-4{fill:#5d8584;}.cls-5{clip-path:url(#clip-path);}.cls-6{stroke:#fff;stroke-miterlimit:10;stroke-width:0.89px;}.cls-7{fill:#fff;}.cls-8{fill:#352c38;}.cls-9{fill:#ffa65b;}</style><clipPath id="clip-path" transform="translate(4.67)"><path class="cls-1" d="M144.5,170c-2.17-5.85-8.4-10.59-15.75-14.48-13.13,9-31.73,14.56-52.38,14.56S37.12,164.45,24,155.49c-7.35,3.89-13.58,8.63-15.75,14.48A176.4,176.4,0,0,0,0,200.29H152.74A176.4,176.4,0,0,0,144.5,170Z"/></clipPath></defs><g id="Layer_2" data-name="Layer 2"><g id="OBJECTS"><path class="cls-2" d="M143.45,170.19c-5.95-16-42.32-23.61-48.69-28.24-8.17-5.95-5.57-25.65-5.57-25.65l-13.38.36-13.38-.36S65,136,56.86,142c-6.37,4.63-42.74,12.26-48.68,28.24A174.64,174.64,0,0,0,0,200.29H151.62A175.11,175.11,0,0,0,143.45,170.19Z" transform="translate(4.67)"/><path class="cls-3" d="M60,138.28c6.27-.64,12.56-1.91,18-5a61.61,61.61,0,0,0,10.87-7.81,60.14,60.14,0,0,1,.35-9.21l-13.38.36-13.38-.36S64.28,130.32,60,138.28Z" transform="translate(4.67)"/><path class="cls-4" d="M144.5,170c-2.17-5.85-8.4-10.59-15.75-14.48-13.13,9-31.73,14.56-52.38,14.56S37.12,164.45,24,155.49c-7.35,3.89-13.58,8.63-15.75,14.48A176.4,176.4,0,0,0,0,200.29H152.74A176.4,176.4,0,0,0,144.5,170Z" transform="translate(4.67)"/><g class="cls-5"><line class="cls-6" x1="6.67" y1="164.39" x2="154" y2="164.39"/><line class="cls-6" x1="6.67" y1="195.05" x2="158" y2="195.05"/><line class="cls-6" y1="180.18" x2="163.33" y2="180.18"/></g><path class="cls-3" d="M53.35,85.6c-2.16-6.7-7.28-5.15-7.76-5s-5.79.84-4.88,7.83,5,10.83,8.82,9.71C53.46,97.53,55.52,92.34,53.35,85.6Z" transform="translate(4.67)"/><path class="cls-3" d="M97.61,85.6c2.16-6.7,7.27-5.15,7.75-5s5.79.84,4.88,7.83-5,10.83-8.82,9.71C97.49,97.53,95.43,92.34,97.61,85.6Z" transform="translate(4.67)"/><path class="cls-2" d="M102.07,75.05c-2.68-29.38-25-27.74-27.13-27.52-2.11-.22-24.45-1.86-27.13,27.52-2.69,29.57,10.48,48.87,27.13,47.81C91.59,123.92,104.76,104.62,102.07,75.05Z" transform="translate(4.67)"/><path class="cls-3" d="M78.13,85.09c.16.47.28,1,.42,1.42s.24,1,.36,1.44q.32,1.44.57,2.88c.16,1,.33,1.94.44,2.91s.24,2,.32,2.93l0,.25-.16.13c-.58.51-1.19,1-1.8,1.48s-1.22,1-1.88,1.4c.48-.63,1-1.21,1.5-1.81s1-1.15,1.57-1.71l-.13.38c-.2-1-.37-1.92-.52-2.89S78.57,92,78.45,91s-.2-2-.26-2.93c0-.49,0-1,0-1.48S78.11,85.59,78.13,85.09Z" transform="translate(4.67)"/><path class="cls-7" d="M62,104.25,88.52,104S77.92,114.41,62,104.25Z" transform="translate(4.67)"/><path class="cls-3" d="M68.8,109.58s.29.06.77.19,1.18.38,2,.51c.42.07.87.15,1.33.25a11.52,11.52,0,0,0,1.49.16,8.46,8.46,0,0,0,1.6.07c.54,0,1.09,0,1.64-.06l1.62-.26a8.48,8.48,0,0,0,1.54-.4,8.34,8.34,0,0,0,1.41-.48l1.24-.55a5.69,5.69,0,0,0,1-.54l.77-.46c.44-.25.7-.38.7-.38s-.19.2-.56.55l-.67.63a4.23,4.23,0,0,1-.93.75c-.37.24-.77.49-1.21.75a6.88,6.88,0,0,1-1.45.66l-.79.3-.41.15-.43.08-1.74.31c-.59,0-1.19,0-1.77,0a7.91,7.91,0,0,1-1.7-.18,8.34,8.34,0,0,1-1.55-.32c-.49-.15-.94-.31-1.36-.46a5.16,5.16,0,0,1-1.08-.48l-.8-.43Z" transform="translate(4.67)"/><path class="cls-8" d="M61,85.53c0,2.21.82,4,1.84,4s1.83-1.8,1.83-4-.82-4-1.83-4S61,83.32,61,85.53Z" transform="translate(4.67)"/><path class="cls-8" d="M86.26,85.53c0,2.21.82,4,1.83,4s1.83-1.8,1.83-4-.82-4-1.83-4S86.26,83.32,86.26,85.53Z" transform="translate(4.67)"/><path class="cls-8" d="M56.54,79a6.64,6.64,0,0,1,1.31-2.07,7.8,7.8,0,0,1,.87-.84,6.94,6.94,0,0,1,1.12-.79,8.07,8.07,0,0,1,1.36-.63,6.75,6.75,0,0,1,1.56-.32l.81,0,.8.11a5.59,5.59,0,0,1,1.49.44,6.76,6.76,0,0,1,1.21.71,5,5,0,0,1,.91.84,3.7,3.7,0,0,1,.64.79,6.87,6.87,0,0,1,.4.67,6.42,6.42,0,0,1,.3.6l-.6-.3c-.19-.1-.41-.22-.65-.37a7,7,0,0,0-.82-.41,7.71,7.71,0,0,0-1-.42c-.35-.09-.69-.27-1.06-.33a6.17,6.17,0,0,0-1.13-.17l-.57,0-.58,0a9.46,9.46,0,0,0-1.17.18c-.37.13-.77.19-1.13.35a10.37,10.37,0,0,0-1.07.43c-.36.14-.67.32-1,.46l-.83.43-.65.36Z" transform="translate(4.67)"/><path class="cls-8" d="M81.93,79a6.64,6.64,0,0,1,1.31-2.07,7.8,7.8,0,0,1,.87-.84,6.94,6.94,0,0,1,1.12-.79,8.07,8.07,0,0,1,1.36-.63,6.86,6.86,0,0,1,1.56-.32l.81,0,.8.11a5.59,5.59,0,0,1,1.49.44,7.23,7.23,0,0,1,1.22.71,5.22,5.22,0,0,1,.9.84,3.7,3.7,0,0,1,.64.79,6.87,6.87,0,0,1,.4.67,6.42,6.42,0,0,1,.3.6l-.6-.3c-.18-.1-.41-.22-.64-.37a8,8,0,0,0-.83-.41,7.71,7.71,0,0,0-1-.42c-.35-.09-.69-.27-1.06-.33a6.19,6.19,0,0,0-1.12-.17l-.58,0-.58,0a9.76,9.76,0,0,0-1.17.18c-.37.13-.77.19-1.13.35A11.37,11.37,0,0,0,85,77.4c-.35.14-.67.32-1,.46l-.83.43-.65.36Z" transform="translate(4.67)"/><path class="cls-8" d="M62,42.19s-16.32-5.6-13.53-13.07,15.4,2.8,15.4,2.8S42.88,13.73,53.14,8.6,75.06,28.66,75.06,28.66,54.54,3.47,73.2.2s5.13,33.59,5.13,33.59S84.86,7.67,95.59,11.4c14.22,5-11.67,25.65-11.67,25.65s15.86-13.52,19.13-10.72S98.52,36.18,90,42.19C77.39,51.05,77.39,50.58,62,42.19Z" transform="translate(4.67)"/><ellipse class="cls-9" cx="79.67" cy="44.72" rx="13" ry="8.5"/><path class="cls-8" d="M74.38,56.61S74.5,68.72,50,75.72c0,0,1.5,18.5-2,17.5S28.72,39.94,74.76,41.55Z" transform="translate(4.67)"/><path class="cls-8" d="M74.38,56.61s.4,12.11,24.9,19.11c0,0-1.5,18.5,2,17.5s18.83-52.44-26.52-51.67Z" transform="translate(4.67)"/><path class="cls-8" d="M81.91,67.56c-7.59-9-8.66-15.18-5.52-25.19a5,5,0,0,1-.91-.22c-3.39,8.36-6.1,22.36,8.24,31C83.72,73.18,91.15,78.56,81.91,67.56Z" transform="translate(4.67)"/><path class="cls-8" d="M75.5,66.72c-3.63-8.94-2.92-14,2-21a5.25,5.25,0,0,1-.66-.4C72.14,51,66.51,61.18,75.49,71.55,75.49,71.55,79.92,77.61,75.5,66.72Z" transform="translate(4.67)"/></g></g></svg>