<svg id="Typography" xmlns="http://www.w3.org/2000/svg" viewBox="0 0 104.46 107.7"><defs><style>.cls-1{fill:#3fa9f5;}.cls-2{fill:#1a1a1a;}.cls-3{fill:#fff;}</style></defs><path class="cls-1" d="M712.42,358.35a27.21,27.21,0,0,1-.24,3.63l-24.28,7.11v0h-9.8v0L657.42,363a27.7,27.7,0,1,1,55-4.68Z" transform="translate(-630.77 -330.65)"/><path class="cls-1" d="M733.25,365.67v26.11h-4.57a15.57,15.57,0,0,0-15.55,15.55v0a3.93,3.93,0,0,0,3.93,3.93h16.19v13.2L688,437.38l-.12,0V368.09l45.35-12.45Z" transform="translate(-630.77 -330.65)"/><path class="cls-1" d="M678.1,368.09v69.33l-.12,0L632.75,424.5V411.3h16.19a3.93,3.93,0,0,0,3.93-3.93v0a15.56,15.56,0,0,0-15.55-15.55h-4.57V365.67h0v-10l28.42,7.49Z" transform="translate(-630.77 -330.65)"/><rect class="cls-1" x="47.33" y="37.43" width="9.8" height="70.27"/><path class="cls-1" d="M652.87,407.33v0a3.93,3.93,0,0,1-3.93,3.93H630.77V391.78h6.55a15.57,15.57,0,0,1,15.55,15.55Z" transform="translate(-630.77 -330.65)"/><path class="cls-1" d="M728.68,391.78a15.57,15.57,0,0,0-15.55,15.55v0a3.93,3.93,0,0,0,3.93,3.93h18.17V391.78Z" transform="translate(-630.77 -330.65)"/><path class="cls-1" d="M712.42,358.35a27.21,27.21,0,0,1-.24,3.63l-24.28,7.11v0h-9.8v0L657.42,363a27.7,27.7,0,1,1,55-4.68Z" transform="translate(-630.77 -330.65)"/><path class="cls-2" d="M733.25,365.67v26.11h-4.57a15.57,15.57,0,0,0-15.55,15.55v0a3.93,3.93,0,0,0,3.93,3.93h16.19v13.2L688,437.38l-.12,0V368.09l45.35-12.45Z" transform="translate(-630.77 -330.65)"/><path class="cls-2" d="M678.1,368.09v69.33l-.12,0L632.75,424.5V411.3h16.19a3.93,3.93,0,0,0,3.93-3.93v0a15.56,15.56,0,0,0-15.55-15.55h-4.57V365.67h0v-10l28.42,7.49Z" transform="translate(-630.77 -330.65)"/><rect class="cls-3" x="47.33" y="37.43" width="9.8" height="70.27"/><path class="cls-1" d="M652.87,407.33v0a3.93,3.93,0,0,1-3.93,3.93H630.77V391.78h6.55a15.57,15.57,0,0,1,15.55,15.55Z" transform="translate(-630.77 -330.65)"/><path class="cls-1" d="M728.68,391.78a15.57,15.57,0,0,0-15.55,15.55v0a3.93,3.93,0,0,0,3.93,3.93h18.17V391.78Z" transform="translate(-630.77 -330.65)"/></svg>