<svg xmlns="http://www.w3.org/2000/svg" viewBox="0 0 844.43 110.7"><defs><style>.cls-1{fill:#3fa9f5;}.cls-1,.cls-2,.cls-3{stroke:#fff;stroke-miterlimit:10;stroke-width:2px;}.cls-2,.cls-4{fill:#1a1a1a;}.cls-3{fill:#fff;}</style></defs><g id="Typography"><path class="cls-1" d="M342.94,357.35a29,29,0,0,1-.24,3.63l-24.28,7.11v0h-9.8v0L287.94,362a27.7,27.7,0,1,1,55-4.68Z" transform="translate(-260.29 -328.65)"/><path class="cls-2" d="M343.65,407.33v0a3.93,3.93,0,0,0,3.93,3.93h16.18v13.2l-45.22,12.88-.12,0V368.09L342.7,361l8-2.34v4.57l10-2.85v6.19l3.08-.88v26.11H359.2a15.54,15.54,0,0,0-15.1,11.85A15.12,15.12,0,0,0,343.65,407.33Z" transform="translate(-260.29 -328.65)"/><path class="cls-2" d="M308.62,368.09v69.33l-.12,0L263.27,424.5V411.3h16.19a3.92,3.92,0,0,0,3.92-3.93v0a15.55,15.55,0,0,0-15.54-15.55h-4.57V365.67l3.09.88v-6.19l10,2.85v-4.57L287.94,362Z" transform="translate(-260.29 -328.65)"/><rect class="cls-3" x="48.33" y="40.39" width="9.8" height="69.31"/><path class="cls-1" d="M283.38,407.33v0a3.92,3.92,0,0,1-3.92,3.93H261.29V391.78h6.55a15.52,15.52,0,0,1,15.54,15.55Z" transform="translate(-260.29 -328.65)"/><path class="cls-1" d="M365.75,391.78V411.3H347.58a3.93,3.93,0,0,1-3.93-3.93v0a15.12,15.12,0,0,1,.45-3.7,15.54,15.54,0,0,1,15.1-11.85Z" transform="translate(-260.29 -328.65)"/><g id="Express"><polygon class="cls-4" points="501 81.59 501 85.66 458.19 85.66 458.19 23.61 499.67 23.61 499.67 27.69 462.71 27.69 462.71 52.16 495.77 52.16 495.77 56.14 462.71 56.14 462.71 81.59 501 81.59"/><polygon class="cls-4" points="560.04 85.66 554.73 85.66 533.32 56.95 512.09 85.66 506.77 85.66 530.62 53.66 508.45 23.61 513.77 23.61 533.54 50.3 553.31 23.61 558.36 23.61 536.17 53.57 560.04 85.66"/><path class="cls-4" d="M874.22,361.89a19.3,19.3,0,0,0-8.59-7.14,32.93,32.93,0,0,0-13.39-2.48H830v62.05h4.52V394h17.73a32.76,32.76,0,0,0,13.39-2.48,19.06,19.06,0,0,0,8.59-7.18,22.41,22.41,0,0,0,0-22.47Zm-39.71,30.27-.12-.13.12-.13Zm32.93-6.6q-5.18,4.38-15.2,4.39H834.51v-33.6h17.73q10,0,15.2,4.39t5.19,12.45Q872.63,381.17,867.44,385.56Z" transform="translate(-260.29 -328.65)"/><path class="cls-4" d="M924.27,392.61a23.31,23.31,0,0,0,3-1.11,19.6,19.6,0,0,0,8.6-7.18,20.11,20.11,0,0,0,3-11.13,20.42,20.42,0,0,0-3-11.3,19.33,19.33,0,0,0-8.6-7.14,32.93,32.93,0,0,0-13.39-2.48H891.6v62.05h4.52V394h17.73a40.38,40.38,0,0,0,6-.42l14.85,20.72h5.15Zm-28.15-.45L896,392l.13-.13ZM913.85,390H896.12V356.35h17.73q10,0,15.2,4.39t5.19,12.45q0,8-5.19,12.41T913.85,390Z" transform="translate(-260.29 -328.65)"/><polygon class="cls-4" points="737.08 81.59 737.08 85.66 694.26 85.66 694.26 23.61 735.75 23.61 735.75 27.69 698.78 27.69 698.78 52.16 731.85 52.16 731.85 56.14 698.78 56.14 698.78 81.59 737.08 81.59"/><path class="cls-4" d="M1029.27,414.76a36.24,36.24,0,0,1-13.07-2.35,24.11,24.11,0,0,1-9.53-6.07l2-3.37a25.08,25.08,0,0,0,8.73,5.54,30.72,30.72,0,0,0,11.74,2.26,26.57,26.57,0,0,0,10.15-1.64,13,13,0,0,0,5.86-4.38,10.49,10.49,0,0,0,1.9-6.12,9.23,9.23,0,0,0-2.13-6.38,14.71,14.71,0,0,0-5.58-3.81,50.91,50.91,0,0,0-7.54-2.4c-2.72-.65-5.46-1.34-8.24-2.08a38.13,38.13,0,0,1-7.62-2.88,14.62,14.62,0,0,1-5.54-4.83,13.84,13.84,0,0,1-2.09-7.94,15.16,15.16,0,0,1,2.31-8.15,16.28,16.28,0,0,1,7.18-6q4.88-2.31,12.5-2.31a35.26,35.26,0,0,1,10.15,1.51,28.29,28.29,0,0,1,8.55,4.08l-1.68,3.63a29.2,29.2,0,0,0-8.38-3.94,31.17,31.17,0,0,0-8.64-1.29,24.8,24.8,0,0,0-9.84,1.69,12.71,12.71,0,0,0-5.76,4.47,11,11,0,0,0-1.87,6.25,9.4,9.4,0,0,0,2.09,6.39,14.46,14.46,0,0,0,5.54,3.81,50.59,50.59,0,0,0,7.62,2.39c2.78.65,5.53,1.35,8.25,2.08a38.33,38.33,0,0,1,7.53,2.89,15.14,15.14,0,0,1,5.59,4.78,13.29,13.29,0,0,1,2.12,7.8,14.85,14.85,0,0,1-2.39,8.12,16.48,16.48,0,0,1-7.31,6Q1037,414.77,1029.27,414.76Z" transform="translate(-260.29 -328.65)"/><path class="cls-4" d="M1082.37,414.76a36.28,36.28,0,0,1-13.07-2.35,24.11,24.11,0,0,1-9.53-6.07l2-3.37a25.08,25.08,0,0,0,8.73,5.54,30.73,30.73,0,0,0,11.75,2.26,26.64,26.64,0,0,0,10.15-1.64,13,13,0,0,0,5.85-4.38,10.49,10.49,0,0,0,1.9-6.12,9.23,9.23,0,0,0-2.13-6.38,14.71,14.71,0,0,0-5.58-3.81,50.91,50.91,0,0,0-7.54-2.4q-4.07-1-8.24-2.08a38.13,38.13,0,0,1-7.62-2.88,14.62,14.62,0,0,1-5.54-4.83,13.84,13.84,0,0,1-2.09-7.94,15.16,15.16,0,0,1,2.31-8.15,16.28,16.28,0,0,1,7.18-6q4.88-2.31,12.5-2.31a35.26,35.26,0,0,1,10.15,1.51,28.29,28.29,0,0,1,8.55,4.08l-1.68,3.63a29.2,29.2,0,0,0-8.38-3.94,31.17,31.17,0,0,0-8.64-1.29,24.8,24.8,0,0,0-9.84,1.69,12.71,12.71,0,0,0-5.76,4.47,11,11,0,0,0-1.87,6.25,9.4,9.4,0,0,0,2.09,6.39,14.46,14.46,0,0,0,5.54,3.81,50.59,50.59,0,0,0,7.62,2.39c2.78.65,5.53,1.35,8.25,2.08a38.33,38.33,0,0,1,7.53,2.89,15.14,15.14,0,0,1,5.59,4.78,13.29,13.29,0,0,1,2.12,7.8,14.85,14.85,0,0,1-2.39,8.12,16.48,16.48,0,0,1-7.31,6Q1090.09,414.77,1082.37,414.76Z" transform="translate(-260.29 -328.65)"/></g><g id="Study_Outline" data-name="Study Outline"><path class="cls-4" d="M438.7,396.15a17,17,0,0,1-2.88,9.57,20.11,20.11,0,0,1-8.73,7q-5.85,2.65-14.63,2.66a51.18,51.18,0,0,1-14.32-2,33.51,33.51,0,0,1-11-5.18L392,397.39a34,34,0,0,0,9.4,4.65,35.14,35.14,0,0,0,11.08,1.82,21.89,21.89,0,0,0,6.87-.89,8.46,8.46,0,0,0,3.86-2.35,5.08,5.08,0,0,0,1.24-3.41,4.7,4.7,0,0,0-1.95-3.95,16.08,16.08,0,0,0-5.19-2.39c-2.16-.61-4.5-1.21-7.05-1.77s-5.09-1.24-7.66-2a30.84,30.84,0,0,1-7.09-3.19,15,15,0,0,1-5.14-5.23,15.78,15.78,0,0,1-1.91-8.11,17.58,17.58,0,0,1,2.83-9.71,19.44,19.44,0,0,1,8.65-7q5.81-2.61,14.58-2.61a48.15,48.15,0,0,1,11.57,1.41,34.22,34.22,0,0,1,10,4.08l-4.52,10.81a36.51,36.51,0,0,0-8.59-3.59,32.67,32.67,0,0,0-8.52-1.19,20.62,20.62,0,0,0-6.83.93,7.94,7.94,0,0,0-3.76,2.52,5.78,5.78,0,0,0-1.2,3.55,4.78,4.78,0,0,0,2,4,14.38,14.38,0,0,0,5.13,2.35c2.13.56,4.5,1.12,7.09,1.68a79.19,79.19,0,0,1,7.72,2.08,34.89,34.89,0,0,1,7,3.15,15.22,15.22,0,0,1,5.19,5.15A15,15,0,0,1,438.7,396.15Z" transform="translate(-260.29 -328.65)"/><polygon class="cls-4" points="235.78 23.61 235.78 35.32 215.93 35.32 215.93 85.67 201.56 85.67 201.56 35.32 181.71 35.32 181.71 23.61 235.78 23.61"/><path class="cls-4" d="M558.64,352.26v34.67q0,13.74-7.44,21.1t-20.57,7.36q-13.21,0-20.66-7.36t-7.44-21.1V352.26H517v34.31q0,8.79,3.63,12.73c2.43,2.63,5.79,3.94,10.11,3.94s7.77-1.31,10.19-3.94,3.64-6.87,3.64-12.73V352.26Z" transform="translate(-260.29 -328.65)"/><path class="cls-4" d="M628.32,366.94a29.38,29.38,0,0,0-12.06-10.82,39.34,39.34,0,0,0-17.82-3.86H570.26v62.06h28.18a39.34,39.34,0,0,0,17.82-3.85,29.45,29.45,0,0,0,12.06-10.82,33,33,0,0,0,0-32.71ZM615.6,393.53a16.89,16.89,0,0,1-7.09,6.74,23.24,23.24,0,0,1-10.77,2.35h-13V364h13a23.24,23.24,0,0,1,10.77,2.35A17.08,17.08,0,0,1,615.6,373a22.07,22.07,0,0,1,0,20.52Z" transform="translate(-260.29 -328.65)"/><polygon class="cls-4" points="431.68 23.61 407.75 63.53 407.75 85.67 393.3 85.67 393.3 63.58 369.18 23.61 384.52 23.61 401.06 51.09 417.67 23.61 431.68 23.61"/></g></g></svg>