<svg xmlns="http://www.w3.org/2000/svg" viewBox="0 0 1031.95 204.36"><defs><style>.cls-1{fill:#1a1a1a;}.cls-2{fill:#0061eb;}.cls-3,.cls-4{fill:none;}.cls-3{stroke:#fff;stroke-miterlimit:10;}.cls-4{stroke:#1a1a1a;stroke-linecap:round;stroke-linejoin:round;stroke-width:4.69px;}</style></defs><g id="Logo"><g id="Express"><polygon class="cls-1" points="476.32 27.75 476.32 63.36 511.23 63.36 507.93 69.17 476.32 69.17 476.32 106.2 486.89 106.2 486.02 107.74 492.54 112.14 469.74 112.14 469.74 21.81 530.13 21.81 530.13 27.75 476.32 27.75"/><polygon class="cls-1" points="615.55 21.81 588 58.99 584.74 53.49 608.2 21.81 615.55 21.81"/><path class="cls-1" d="M797.47,343.05A28.08,28.08,0,0,0,785,332.67q-8.13-3.62-19.48-3.62H733.08v90.33h6.58V389.83h25.81q11.35,0,19.48-3.61a27.86,27.86,0,0,0,12.52-10.46,29.45,29.45,0,0,0,4.39-16.25Q801.86,349.82,797.47,343.05Zm-9.87,34.46q-7.56,6.39-22.13,6.38H739.66V335h25.81q14.58,0,22.13,6.39t7.55,18.13Q795.15,371.12,787.6,377.51Z" transform="translate(-101.01 -307.24)"/><path class="cls-1" d="M870.31,387.77a35.69,35.69,0,0,0,4.32-1.62,28.41,28.41,0,0,0,12.52-10.45,29.17,29.17,0,0,0,4.38-16.19q0-9.69-4.38-16.46a28.08,28.08,0,0,0-12.52-10.38q-8.13-3.62-19.48-3.62H822.76v66.89l6.58-2.79v-3.32h7.82l10.62-4.51-2.58,4.51h9.95a58.43,58.43,0,0,0,8.71-.62l21.61,30.17H893ZM855.15,384H829.34V335h25.81q14.58,0,22.13,6.39t7.54,18.13q0,11.61-7.54,18.06T855.15,384Z" transform="translate(-101.01 -307.24)"/><polygon class="cls-1" points="875.69 106.2 875.69 112.14 813.36 112.14 813.36 21.81 873.75 21.81 873.75 27.75 819.94 27.75 819.94 63.36 868.07 63.36 868.07 69.17 819.94 69.17 819.94 106.2 875.69 106.2"/><path class="cls-1" d="M1052.57,384.8a22.15,22.15,0,0,0-8.13-7,56.1,56.1,0,0,0-11-4.19q-5.94-1.62-12-3a72.41,72.41,0,0,1-11.1-3.48,21,21,0,0,1-8.06-5.55q-3-3.48-3-9.29a16,16,0,0,1,2.71-9.1,18.47,18.47,0,0,1,8.38-6.51q5.68-2.46,14.33-2.45a45.46,45.46,0,0,1,12.58,1.87,42,42,0,0,1,12.19,5.74l2.45-5.29a41.36,41.36,0,0,0-12.45-5.94,51.06,51.06,0,0,0-14.77-2.19q-11.1,0-18.2,3.35a23.85,23.85,0,0,0-10.45,8.78,22.08,22.08,0,0,0-3.35,11.87q0,7.09,3,11.55a21.33,21.33,0,0,0,8.06,7,55.44,55.44,0,0,0,11.1,4.19q6.06,1.62,12,3a74.72,74.72,0,0,1,11,3.48,21.81,21.81,0,0,1,8.13,5.55q3.09,3.48,3.09,9.29a15.23,15.23,0,0,1-2.77,8.9,18.73,18.73,0,0,1-8.52,6.39q-5.73,2.39-14.77,2.39a44.92,44.92,0,0,1-17.1-3.29,36.93,36.93,0,0,1-12.71-8.07l-3,4.91q4.9,5.42,13.88,8.83a52.91,52.91,0,0,0,19,3.42q11.22,0,18.39-3.29a24,24,0,0,0,10.64-8.77,21.65,21.65,0,0,0,3.49-11.81Q1055.67,389.19,1052.57,384.8Z" transform="translate(-101.01 -307.24)"/><path class="cls-1" d="M1129.86,384.8a22,22,0,0,0-8.13-7,55.85,55.85,0,0,0-11-4.19q-5.92-1.62-12-3a71.93,71.93,0,0,1-11.09-3.48,21,21,0,0,1-8.07-5.55q-3-3.48-3-9.29a16,16,0,0,1,2.71-9.1,18.45,18.45,0,0,1,8.39-6.51q5.67-2.46,14.32-2.45a45.46,45.46,0,0,1,12.58,1.87,42,42,0,0,1,12.19,5.74l2.45-5.29a41.36,41.36,0,0,0-12.45-5.94,51.06,51.06,0,0,0-14.77-2.19q-11.1,0-18.2,3.35a23.85,23.85,0,0,0-10.45,8.78,22.08,22.08,0,0,0-3.35,11.87q0,7.09,3,11.55a21.33,21.33,0,0,0,8.06,7,55.44,55.44,0,0,0,11.1,4.19q6.06,1.62,12,3a74.72,74.72,0,0,1,11,3.48,21.81,21.81,0,0,1,8.13,5.55,13.49,13.49,0,0,1,3.1,9.29,15.24,15.24,0,0,1-2.78,8.9,18.75,18.75,0,0,1-8.51,6.39q-5.74,2.39-14.78,2.39a44.92,44.92,0,0,1-17.1-3.29,37,37,0,0,1-12.71-8.07l-3,4.91q4.89,5.42,13.87,8.83a53,53,0,0,0,19,3.42q11.22,0,18.39-3.29a24,24,0,0,0,10.64-8.77,21.57,21.57,0,0,0,3.49-11.81Q1133,389.19,1129.86,384.8Z" transform="translate(-101.01 -307.24)"/></g><path class="cls-1" d="M842.81,390.07l-2.47,4.31L825.19,420.9l-1,1.71-48,84a25.84,25.84,0,0,1-7.18.93c-20.15,0-20.15-18.35-40.31-18.35s-20.16,18.35-40.31,18.35-20.16-18.35-40.32-18.35S628,507.5,607.79,507.5c-10,0-15.07-4.55-20.09-9.12l71.86-30.5,61.1-25.94,98.25-41.73,6.28-2.66,7.47-3.17Z" transform="translate(-101.01 -307.24)"/><polygon class="cls-2" points="614.74 108.81 613.69 109.52 613.28 109.79 554.79 149.26 496.3 109.79 490.19 105.67 491 104.22 510.73 69.51 513.82 64.07 534.36 27.9 550.21 0 566.77 27.9 582.72 54.81 585.78 59.97 614.74 108.81"/><path class="cls-1" d="M657.75,466.35,586.3,496.67C582,493,576.9,490,568.56,490,553,490,548.91,500.5,539.36,506l-2.3-4-1.55-2.71-64-112,119.32,50.66Z" transform="translate(-101.01 -307.24)"/><g id="Study_Fill" data-name="Study Fill"><path class="cls-1" d="M138.52,420.93A74.14,74.14,0,0,1,117.69,418q-10-2.89-16.07-7.55l7.1-15.74a49.37,49.37,0,0,0,13.68,6.78,51.15,51.15,0,0,0,16.12,2.64,32,32,0,0,0,10-1.29,12.46,12.46,0,0,0,5.61-3.42,7.45,7.45,0,0,0,1.8-5,6.81,6.81,0,0,0-2.83-5.74,23.27,23.27,0,0,0-7.55-3.48c-3.14-.91-6.56-1.76-10.26-2.58s-7.42-1.81-11.16-3a44.84,44.84,0,0,1-10.33-4.65,21.8,21.8,0,0,1-7.48-7.61,22.94,22.94,0,0,1-2.77-11.81,25.44,25.44,0,0,1,4.13-14.13q4.13-6.37,12.58-10.19t21.22-3.81a69.51,69.51,0,0,1,16.84,2.07,50,50,0,0,1,14.52,5.93l-6.58,15.75A52.4,52.4,0,0,0,153.75,346a47.54,47.54,0,0,0-12.39-1.74,29.92,29.92,0,0,0-9.93,1.35,11.61,11.61,0,0,0-5.49,3.68,8.41,8.41,0,0,0-1.74,5.16,7,7,0,0,0,2.84,5.81,21,21,0,0,0,7.48,3.42q4.65,1.23,10.33,2.45a116.2,116.2,0,0,1,11.22,3,50.92,50.92,0,0,1,10.2,4.58,22.26,22.26,0,0,1,7.55,7.49,21.92,21.92,0,0,1,2.9,11.68,24.71,24.71,0,0,1-4.19,13.93q-4.2,6.33-12.71,10.2T138.52,420.93Z" transform="translate(-101.01 -307.24)"/><path class="cls-1" d="M204.59,419.38V346.09h-28.9v-17H254.4v17H225.49v73.29Z" transform="translate(-101.01 -307.24)"/><path class="cls-1" d="M300.33,420.93q-19.21,0-30.06-10.71t-10.84-30.71V329.05h21V379q0,12.78,5.29,18.52t14.71,5.74q9.56,0,14.84-5.74T320.59,379V329.05h20.52v50.46q0,20-10.84,30.71T300.33,420.93Z" transform="translate(-101.01 -307.24)"/><path class="cls-1" d="M358,419.38V329.05h41q14.7,0,25.93,5.62a42.63,42.63,0,0,1,17.55,15.74q6.33,10.13,6.32,23.81T442.53,398A42.56,42.56,0,0,1,425,413.76q-11.22,5.63-25.93,5.62Zm21-17h19a33.85,33.85,0,0,0,15.68-3.42A24.75,24.75,0,0,0,424,389.12a32.22,32.22,0,0,0,0-29.87,24.92,24.92,0,0,0-10.33-9.75A34,34,0,0,0,398,346.09h-19Z" transform="translate(-101.01 -307.24)"/><polygon class="cls-1" points="434.17 21.81 399.33 79.91 399.33 112.14 378.3 112.14 378.3 79.98 343.2 21.81 365.52 21.81 389.6 61.81 413.78 21.81 434.17 21.81"/></g><g id="Study_Outline" data-name="Study Outline"><path class="cls-3" d="M176.71,392.93a24.63,24.63,0,0,1-4.19,13.93q-4.2,6.33-12.71,10.2t-21.29,3.87A74.21,74.21,0,0,1,117.68,418q-10-2.89-16.06-7.54l7.09-15.75a49.38,49.38,0,0,0,13.68,6.78,51.17,51.17,0,0,0,16.13,2.64,31.9,31.9,0,0,0,10-1.29,12.35,12.35,0,0,0,5.61-3.42,7.4,7.4,0,0,0,1.81-5,6.83,6.83,0,0,0-2.84-5.75,23.17,23.17,0,0,0-7.55-3.48q-4.71-1.35-10.26-2.58t-11.16-3a45.17,45.17,0,0,1-10.32-4.64,21.82,21.82,0,0,1-7.48-7.62,22.93,22.93,0,0,1-2.78-11.8,25.47,25.47,0,0,1,4.13-14.13q4.13-6.39,12.58-10.2t21.23-3.8a70,70,0,0,1,16.84,2.06,49.66,49.66,0,0,1,14.51,5.94l-6.58,15.74A52.57,52.57,0,0,0,153.75,346a47.65,47.65,0,0,0-12.39-1.74,29.73,29.73,0,0,0-9.94,1.36,11.49,11.49,0,0,0-5.48,3.67,8.41,8.41,0,0,0-1.74,5.16,7,7,0,0,0,2.84,5.81,20.86,20.86,0,0,0,7.48,3.42q4.65,1.23,10.32,2.45a115.61,115.61,0,0,1,11.23,3,50.58,50.58,0,0,1,10.19,4.58,22.08,22.08,0,0,1,7.55,7.49A21.83,21.83,0,0,1,176.71,392.93Z" transform="translate(-101.01 -307.24)"/><polygon class="cls-3" points="153.39 21.81 153.39 38.85 124.49 38.85 124.49 112.14 103.58 112.14 103.58 38.85 74.68 38.85 74.68 21.81 153.39 21.81"/><path class="cls-3" d="M341.11,329.05v50.46q0,20-10.84,30.71t-29.94,10.71q-19.23,0-30.07-10.71t-10.83-30.71V329.05h21V379q0,12.78,5.29,18.52t14.71,5.74q9.54,0,14.84-5.74T320.59,379V329.05Z" transform="translate(-101.01 -307.24)"/><path class="cls-3" d="M442.53,350.41A42.76,42.76,0,0,0,425,334.67Q413.75,329,399,329.05H358v90.33h41q14.71,0,25.94-5.61A42.78,42.78,0,0,0,442.53,398q6.32-10.12,6.32-23.8T442.53,350.41ZM424,389.12a24.67,24.67,0,0,1-10.32,9.81A33.85,33.85,0,0,1,398,402.35H379V346.09h19a33.85,33.85,0,0,1,15.68,3.42A24.81,24.81,0,0,1,424,359.25a32.15,32.15,0,0,1,0,29.87Z" transform="translate(-101.01 -307.24)"/><polygon class="cls-3" points="434.17 21.81 399.33 79.92 399.33 112.14 378.3 112.14 378.3 79.98 343.2 21.81 365.53 21.81 389.6 61.81 413.78 21.81 434.17 21.81"/></g><path class="cls-4" d="M486.65,490c20.15,0,20.15,19.21,40.31,19.21A23.15,23.15,0,0,0,539.38,506c9.13-5.48,13-15.94,27.9-15.94,8,0,12.79,3,17,6.63,1.12,1,2.19,2,3.27,3,5,4.79,10.06,9.55,20.09,9.55,20.16,0,20.16-19.21,40.32-19.21s20.16,19.21,40.32,19.21S708.39,490,728.54,490s20.16,19.21,40.32,19.21a25,25,0,0,0,7.18-1C789.39,504.4,791.75,490,809.18,490c20.16,0,20.16,19.21,40.32,19.21" transform="translate(-101.01 -307.24)"/></g></svg>