<svg xmlns="http://www.w3.org/2000/svg" viewBox="0 0 146 146"><defs><style>.cls-1{fill:#fff;}.cls-2{fill:#333;}.cls-2,.cls-3,.cls-4{stroke:#fff;stroke-miterlimit:10;stroke-width:2px;}.cls-3{fill:#1a1a1a;}.cls-4{fill:#3fa9f5;}</style></defs><g id="Typography"><circle class="cls-1" cx="73" cy="73" r="73"/><path class="cls-2" d="M712.42,357.35a27.21,27.21,0,0,1-.24,3.63l-24.28,7.11v0h-9.8v0L657.42,362a27.7,27.7,0,1,1,55-4.68Z" transform="translate(-610 -311)"/><path class="cls-3" d="M713.13,407.33v0a3.93,3.93,0,0,0,3.93,3.93h16.19v13.2L688,437.38l-.12,0V368.09L712.18,361l8-2.34v4.57l10-2.85v6.19l3.09-.88v26.11h-4.57a15.57,15.57,0,0,0-15.55,15.55Z" transform="translate(-610 -311)"/><path class="cls-3" d="M678.1,368.09v69.33l-.12,0L632.75,424.5V411.3h16.19a3.93,3.93,0,0,0,3.93-3.93v0a15.56,15.56,0,0,0-15.55-15.55h-4.57V365.67l3.09.88v-6.19l10,2.85v-4.57L657.42,362Z" transform="translate(-610 -311)"/><rect class="cls-4" x="68.1" y="58.04" width="9.8" height="69.31"/><path class="cls-2" d="M652.87,407.33v0a3.93,3.93,0,0,1-3.93,3.93H630.77V391.78h6.55a15.57,15.57,0,0,1,15.55,15.55Z" transform="translate(-610 -311)"/><path class="cls-2" d="M735.23,391.78V411.3H717.06a3.93,3.93,0,0,1-3.93-3.93v0a15.56,15.56,0,0,1,15.55-15.55Z" transform="translate(-610 -311)"/></g></svg>